PathFileType	4	(X/Y/Z)	/Users/itak/Documents/Research/Walk-IL/dataset/trc/00297_00010.trc
DataRate	CameraRate	NumFrames	NumMarkers	Units	OrigDataRate	OrigDataStartFrame	OrigNumFrames
100.000000	100.000000	4	53	mm	100.000000	282	377
Frame#	Time	RPSI			LPSI			L3			STRN			T10			C7			CLAV			RBAK			LBAK			LSHO			LUPA			LAEL			LAOL			LWTS			LWPS			LFRA			LIFD			LHPS			LHTS			RSHO			RUPA			RAEL			RAOL			RWTS			RWPS			RFRA			RIFD			RHTS			RHPS			RBHD			LFHD			RFHD			LBHD			RASI			LASI			LKNE			LTHI			LANK			LTIP			LTOE			LMT1			LMT5			LHEE			RKNE			RTHI			RANK			RTIP			RTOE			RMT1			RMT5			RHEE			LHIP			RHIP			
		X1	Y1	Z1	X2	Y2	Z2	X3	Y3	Z3	X4	Y4	Z4	X5	Y5	Z5	X6	Y6	Z6	X7	Y7	Z7	X8	Y8	Z8	X9	Y9	Z9	X10	Y10	Z10	X11	Y11	Z11	X12	Y12	Z12	X13	Y13	Z13	X14	Y14	Z14	X15	Y15	Z15	X16	Y16	Z16	X17	Y17	Z17	X18	Y18	Z18	X19	Y19	Z19	X20	Y20	Z20	X21	Y21	Z21	X22	Y22	Z22	X23	Y23	Z23	X24	Y24	Z24	X25	Y25	Z25	X26	Y26	Z26	X27	Y27	Z27	X28	Y28	Z28	X29	Y29	Z29	X30	Y30	Z30	X31	Y31	Z31	X32	Y32	Z32	X33	Y33	Z33	X34	Y34	Z34	X35	Y35	Z35	X36	Y36	Z36	X37	Y37	Z37	X38	Y38	Z38	X39	Y39	Z39	X40	Y40	Z40	X41	Y41	Z41	X42	Y42	Z42	X43	Y43	Z43	X44	Y44	Z44	X45	Y45	Z45	X46	Y46	Z46	X47	Y47	Z47	X48	Y48	Z48	X49	Y49	Z49	X50	Y50	Z50	X51	Y51	Z51	X52	Y52	Z52	X53	Y53	Z53	

283	2.82	676.7623291015625	1002.247863769531	-366.5327453613281	503.4359130859375	988.423828125	-346.3219909667969	590.9942626953125	1068.202758789062	-375.0042419433594	544.8045654296875	1248.051025390625	-621.2396850585938	600.2576904296875	1178.553955078125	-364.4932861328125	577.3973999023438	1424.0517578125	-395.2754516601562	551.8687744140625	1348.100830078125	-556.8959350585938	664.2470703125	1286.424560546875	-367.2021484375	478.0504455566406	1386.54638671875	-362.5106811523438	406.2101135253906	1395.21923828125	-442.5681762695312	343.3359069824219	1280.180419921875	-395.4795532226562	331.6338806152344	1077.3408203125	-385.9836120605469	408.6000366210938	1067.127685546875	-344.9822387695312	359.4526672363281	851.7882080078125	-469.0892944335938	307.3094177246094	840.9783935546875	-421.9263610839844	319.1434936523438	972.7555541992188	-394.4045715332031	364.9839172363281	667.5286865234375	-461.2503356933594	311.3321228027344	752.3345336914062	-421.9060363769531	339.9729919433594	751.632568359375	-481.6691284179688	718.7213745117188	1407.499755859375	-495.9136962890625	785.526611328125	1350.898803710938	-508.0812377929688	856.14990234375	1096.452514648438	-566.3837890625	770.1084594726562	1074.521728515625	-535.3896484375	805.39794921875	922.1657104492188	-735.8829345703125	882.2302856445312	906.0830078125	-702.4229736328125	869.2156982421875	1040.94189453125	-611.5880126953125	818.5828857421875	757.1902465820312	-821.1722412109375	829.261962890625	832.0518798828125	-811.866455078125	882.9782104492188	814.572021484375	-769.369384765625	646.92333984375	1573.406494140625	-409.3779296875	505.6939392089844	1644.121215820312	-551.6375122070312	597.9511108398438	1640.489501953125	-565.7118530273438	501.9145202636719	1570.02392578125	-391.2982482910156	nan	nan	nan	434.98095703125	956.1906127929688	-548.83642578125	395.0359497070312	497.4710998535156	-597.035400390625	384.4425659179688	632.8134155273438	-545.895751953125	411.3866882324219	86.37617492675781	-401.5356140136719	390.877197265625	286.4533996582031	-501.3611145019531	471.0214538574219	55.07807540893555	-597.3175048828125	510.6733093261719	46.55532455444336	-528.6947021484375	400.3135070800781	58.34708404541016	-518.823974609375	469.7422790527344	91.69351196289062	-354.28662109375	719.49560546875	478.8119812011719	-531.8145141601562	751.7162475585938	743.8515625	-547.2745971679688	687.4779663085938	38.38799667358398	-488.9568176269531	703.4043579101562	358.5696716308594	-544.6170654296875	609.5955810546875	36.63185119628906	-677.8292236328125	577.3273315429688	34.30988693237305	-613.9053955078125	693.4227905273438	30.29455184936523	-593.522216796875	645.0717163085938	35.17716217041016	-431.7776794433594	400.8824157714844	937.821533203125	-408.9396362304688	767.5787963867188	952.4472045898438	-480.7567138671875	
284	2.83	676.9356689453125	1002.349609375	-368.8630981445312	503.6999206542969	988.8607788085938	-348.4961547851562	591.3477783203125	1068.537841796875	-377.2364501953125	545.05126953125	1248.032592773438	-623.6625366210938	600.781005859375	1178.922607421875	-366.87890625	577.6915283203125	1424.327758789062	-397.7716064453125	552.018798828125	1348.07861328125	-559.3263549804688	664.7608642578125	1286.874389648438	-369.7400512695312	478.4279174804688	1386.734497070312	-364.7433166503906	406.5215148925781	1395.1943359375	-444.68359375	343.8563537597656	1279.790161132812	-397.9011535644531	333.0197448730469	1076.905517578125	-388.9138488769531	409.8205871582031	1066.822998046875	-347.74462890625	361.4728088378906	851.8175659179688	-472.6444396972656	309.1435546875	840.66552734375	-425.8062744140625	320.861572265625	972.3524780273438	-397.6991577148438	367.8553466796875	667.7786254882812	-465.8366394042969	313.6421813964844	751.9619140625	-426.181640625	342.3109436035156	751.7345581054688	-485.9227905273438	718.7778930664062	1407.774169921875	-498.8096008300781	785.5242309570312	1351.115234375	-511.3418579101562	855.5027465820312	1096.603881835938	-570.2951049804688	769.4866333007812	1075.060546875	-539.0761108398438	802.35009765625	921.8992309570312	-738.7237548828125	879.7998046875	906.1129150390625	-706.4484252929688	867.9386596679688	1041.005004882812	-615.5806884765625	814.236572265625	756.7099609375	-823.7518310546875	825.045166015625	831.6311645507812	-814.8107299804688	879.4746704101562	814.3067626953125	-773.14990234375	647.1167602539062	1573.42236328125	-411.9777526855469	505.5416259765625	1644.374389648438	-553.7623291015625	597.7654418945312	1640.781372070312	-568.0515747070312	502.16162109375	1569.996459960938	-393.541015625	nan	nan	nan	435.2409973144531	956.4656372070312	-551.1389770507812	395.6302185058594	496.7366027832031	-596.2364501953125	384.2902526855469	632.558837890625	-546.171142578125	409.7136535644531	78.97683715820312	-414.3369445800781	390.2877502441406	282.7923278808594	-506.5854797363281	468.5491943359375	55.86118698120117	-611.6019287109375	508.2901306152344	44.11814498901367	-543.4149169921875	398.1214599609375	56.31129837036133	-532.7616577148438	468.2027587890625	81.81568145751953	-366.9645080566406	719.2298583984375	478.4707336425781	-532.2936401367188	751.6223754882812	743.6497802734375	-548.9821166992188	687.3572387695312	38.35483551025391	-488.9305419921875	703.3845825195312	358.5650939941406	-544.7476806640625	609.5768432617188	36.62702178955078	-677.8450317382812	577.17236328125	34.06034469604492	-613.8435668945312	693.3076782226562	30.34087753295898	-593.4600830078125	644.9364624023438	35.15928268432617	-431.7272033691406	400.89013671875	938.3793334960938	-411.24951171875	767.6185913085938	952.3538818359375	-483.0807495117188	
285	2.84	677.0015258789062	1002.389587402344	-371.1759948730469	503.8788452148438	989.2189331054688	-350.7099914550781	591.5689697265625	1068.772216796875	-379.4462585449219	545.2813110351562	1248.05615234375	-626.0012817382812	601.1226806640625	1179.261596679688	-369.1485900878906	577.8450927734375	1424.561767578125	-400.1271362304688	552.1442260742188	1348.06689453125	-561.6296997070312	665.10107421875	1287.275512695312	-372.0870056152344	478.6322937011719	1386.898315429688	-366.9241027832031	406.8116455078125	1395.194091796875	-446.7515258789062	344.207275390625	1279.431884765625	-400.4288635253906	334.1726379394531	1076.536987304688	-392.0546264648438	410.7080383300781	1066.52294921875	-350.6011352539062	363.3504638671875	851.7275390625	-476.0946350097656	310.5106506347656	840.4146118164062	-429.6860656738281	322.2325439453125	972.0325927734375	-401.1390991210938	370.0870056152344	668.031982421875	-470.0970764160156	315.4560852050781	751.6463623046875	-430.3183288574219	344.2268981933594	751.7835083007812	-489.9969482421875	718.7625732421875	1408.00439453125	-501.4618530273438	785.456787109375	1351.292846679688	-514.3123779296875	854.7409057617188	1096.683349609375	-573.8455810546875	768.7487182617188	1075.5234375	-542.3990478515625	799.2000122070312	921.545166015625	-741.148681640625	877.2412719726562	906.0264892578125	-710.0409545898438	866.56005859375	1040.997802734375	-619.2009887695312	809.805419921875	756.1190185546875	-825.8648071289062	820.7272338867188	831.0853881835938	-817.2978515625	875.8495483398438	813.9138793945312	-776.4776611328125	647.2063598632812	1573.425170898438	-414.4737854003906	505.3300170898438	1644.582153320312	-555.8352661132812	597.5188598632812	1641.02685546875	-570.3099365234375	502.3162536621094	1569.947509765625	-395.7146911621094	nan	nan	nan	435.4155578613281	956.742431640625	-553.5277709960938	396.1573181152344	495.8895874023438	-595.1506958007812	384.0160827636719	632.2022094726562	-546.303955078125	407.850341796875	72.33975982666016	-426.300537109375	389.5929260253906	279.4516906738281	-511.2303771972656	465.9046630859375	56.7535400390625	-624.70166015625	505.7098999023438	42.0085563659668	-557.0372924804688	395.7548522949219	54.66912078857422	-545.5860595703125	466.5354919433594	72.81617736816406	-378.9096374511719	718.9928588867188	478.1825866699219	-532.6336059570312	751.5245361328125	743.446044921875	-550.6605834960938	687.2396240234375	38.32386016845703	-488.8995361328125	703.3280029296875	358.5110473632812	-544.7472534179688	609.5630493164062	36.62791442871094	-677.852294921875	577.0632934570312	33.88666152954102	-613.8048706054688	693.1934814453125	30.38750267028809	-593.3932495117188	644.7916870117188	35.12333679199219	-431.6598815917969	400.8198547363281	938.9385375976562	-413.6466369628906	767.6080322265625	952.2645263671875	-485.3858642578125	
286	2.85	676.9464721679688	1002.377502441406	-373.4735717773438	503.94091796875	989.4963989257812	-352.983154296875	591.648681640625	1068.913818359375	-381.6408996582031	545.4857788085938	1248.127075195312	-628.2505493164062	601.2810668945312	1179.547485351562	-371.3063354492188	577.8648071289062	1424.73828125	-402.33203125	552.2412109375	1348.07373046875	-563.8021850585938	665.263671875	1287.607543945312	-374.2474670410156	478.6745300292969	1387.026123046875	-369.0450744628906	407.0725402832031	1395.220581054688	-448.7681274414062	344.3829956054688	1279.127075195312	-403.034423828125	335.04931640625	1076.2587890625	-395.3609619140625	411.2414855957031	1066.241455078125	-353.5272521972656	364.9041137695312	851.5531616210938	-479.4046936035156	311.3566284179688	840.2406005859375	-433.5086364746094	323.1939392089844	971.81298828125	-404.6703186035156	371.5480041503906	668.2568359375	-473.9676818847656	316.6596374511719	751.4099731445312	-434.2538757324219	345.6318969726562	751.7720336914062	-493.8152465820312	718.6852416992188	1408.188354492188	-503.8628234863281	785.3297729492188	1351.422241210938	-516.9808959960938	853.8704833984375	1096.68212890625	-577.0260620117188	767.8998413085938	1075.903442382812	-545.3492431640625	795.9716186523438	921.1189575195312	-743.1654052734375	874.5545654296875	905.8096313476562	-713.1979370117188	865.0875244140625	1040.914428710938	-622.442626953125	805.3138427734375	755.4285278320312	-827.5185546875	816.3318481445312	830.4207153320312	-819.334716796875	872.1091918945312	813.3794555664062	-779.345703125	647.196044921875	1573.42236328125	-416.8627014160156	505.0575256347656	1644.734252929688	-557.8603515625	597.2091064453125	1641.212158203125	-572.4924926757812	502.3884582519531	1569.891479492188	-397.811767578125	nan	nan	nan	435.5144958496094	957.0048828125	-556.0067749023438	396.6094360351562	494.9736328125	-593.8386840820312	383.6597290039062	631.7481079101562	-546.3074340820312	405.9230651855469	66.53620910644531	-437.2016906738281	388.8432312011719	276.4699401855469	-515.2515258789062	463.1731567382812	57.63770294189453	-636.4852294921875	503.0333557128906	40.19234466552734	-569.3753662109375	393.3094787597656	53.36024475097656	-557.1065063476562	464.8516845703125	64.83531188964844	-389.9013366699219	718.8154907226562	477.9677734375	-532.8346557617188	751.4226684570312	743.233642578125	-552.2928466796875	687.1337280273438	38.30109786987305	-488.8663940429688	703.2434692382812	358.39990234375	-544.62109375	609.5576171875	36.63578796386719	-677.8497924804688	577.0267944335938	33.83536529541016	-613.801513671875	693.0885009765625	30.43153953552246	-593.3262939453125	644.64501953125	35.06922912597656	-431.5819396972656	400.678955078125	939.482421875	-416.1362915039062	767.546875	952.1864624023438	-487.6639404296875	
